<svg width="592" height="440" viewBox="0 0 592 440" fill="none" xmlns="http://www.w3.org/2000/svg">
<g clip-path="url(#clip0_28_367)">
<path d="M375.999 244.361C378.072 243.878 379.89 242.505 381.064 240.538C382.237 238.571 382.671 236.169 382.272 233.848C382.183 233.336 382.053 232.833 381.884 232.346L403.406 211.638L389.336 207.195L371.055 227.541C369.135 228.563 367.653 230.388 366.928 232.62C366.203 234.853 366.295 237.314 367.183 239.472C367.938 241.282 369.222 242.753 370.824 243.641C372.426 244.529 374.251 244.783 375.999 244.361Z" fill="#FFB6B6"/>
<path d="M515.756 391.213L516.538 371.581C524.693 366.716 533.788 364.146 543.034 364.095C530.309 375.708 531.899 398.093 523.271 413.709C520.547 418.557 516.88 422.658 512.543 425.709C508.206 428.76 503.309 430.682 498.215 431.333L487.566 438.611C486.105 429.518 486.427 420.18 488.51 411.24C490.594 402.3 494.389 393.97 499.634 386.825C502.612 382.849 506.027 379.307 509.798 376.283C512.349 383.79 515.756 391.213 515.756 391.213Z" fill="#F2F2F2"/>
<path d="M488.317 428.508L478.674 428.507L474.087 386.994L488.319 386.995L488.317 428.508Z" fill="#FFB6B6"/>
<path d="M490.776 438.941L459.684 438.94V438.501C459.684 434.918 460.959 431.483 463.229 428.95C465.498 426.417 468.576 424.993 471.786 424.993H471.787L477.466 420.184L488.063 424.994L490.777 424.994L490.776 438.941Z" fill="#2F2E41"/>
<path d="M443.518 428.508L433.876 428.507L429.288 386.994L443.52 386.995L443.518 428.508Z" fill="#FFB6B6"/>
<path d="M445.978 438.941L414.885 438.94V438.501C414.886 434.918 416.161 431.483 418.43 428.95C420.7 426.417 423.778 424.993 426.987 424.993H426.988L432.668 420.184L443.264 424.994L445.978 424.994L445.978 438.941Z" fill="#2F2E41"/>
<path d="M439.345 201.548L502.065 203.298C513.977 210.52 514.158 226.15 510.255 244.707C510.255 244.707 511.573 255.737 508.938 258.679C506.302 261.62 504.985 261.62 506.302 266.767C507.62 271.914 500.659 280.322 501.504 281.265C502.35 282.209 504.326 287.356 504.326 287.356L497.738 329.27C497.738 329.27 493.126 402.068 491.809 403.538C490.491 405.009 489.174 403.538 490.491 407.215C491.809 410.892 493.126 409.421 491.809 410.892C490.642 412.296 489.542 413.769 488.515 415.304H472.587C472.587 415.304 471.386 407.95 471.386 407.215C471.386 406.48 470.068 402.068 470.068 401.332C470.068 400.597 471.233 399.297 471.233 399.297C471.635 397.802 471.907 396.268 472.045 394.714C472.045 393.244 475.998 336.623 475.998 336.623L468.092 263.091L448.987 335.153C448.987 335.153 448.987 398.391 447.669 399.862C446.351 401.332 446.351 400.597 447.01 403.538C447.669 406.48 450.304 405.744 448.328 407.95C446.351 410.156 445.693 406.48 446.351 410.156L447.01 413.833L427.246 414.148C427.246 414.148 424.611 407.95 425.929 405.744C427.246 403.538 427.167 404.14 425.56 400.53C423.952 396.92 423.293 396.185 423.952 395.45C424.611 394.714 424.611 390.803 424.611 390.803L427.905 320.446C427.905 320.446 428.564 246.178 428.564 243.972C428.613 242.837 428.426 241.704 428.017 240.664V237.67L430.54 227.059L439.345 201.548Z" fill="#2F2E41"/>
<path d="M375.274 220.476L385.874 230.017L443.661 180.021L440.241 93.0044C436.991 95.9063 434.289 99.4987 432.291 103.574C430.293 107.649 429.038 112.125 428.6 116.745L418.7 165.9L375.274 220.476Z" fill="#E6E6E6"/>
<path d="M429.983 223.529C450.438 226.447 469.284 217.607 487.086 210.934C495.123 207.922 503.219 211.067 510.679 205.973C507.453 170.505 510.585 130.553 517.438 87.9771C517.829 85.5669 517.422 83.0802 516.291 80.981C515.16 78.8818 513.384 77.3134 511.293 76.5685L489.21 69.497L482.411 61.1255L464.852 66.1008L458.706 78.5017L437.583 94.4319C436.35 95.3611 435.384 96.6681 434.8 98.1956C434.217 99.723 434.042 101.406 434.295 103.042C440.641 143.083 439.17 184.181 429.983 223.529Z" fill="#E6E6E6"/>
<path d="M495.265 234.507C497.141 233.41 498.555 231.535 499.203 229.286C499.851 227.037 499.682 224.593 498.73 222.482C498.519 222.016 498.271 221.572 497.99 221.155L513.633 194.678L499.01 194.689L486.397 219.83C484.8 221.398 483.819 223.605 483.668 225.974C483.517 228.343 484.207 230.683 485.589 232.488C486.757 234 488.352 235.023 490.11 235.39C491.869 235.757 493.687 235.445 495.265 234.507Z" fill="#FFB6B6"/>
<path d="M490.847 209.789L500.421 223.529L533.931 167.808L531.033 111.199C530.663 103.989 528.666 97.0002 525.227 90.8831C521.788 84.7659 517.019 79.719 511.363 76.2118L512.047 163.228L490.847 209.789Z" fill="#E6E6E6"/>
<path d="M466.788 57.8867C478.623 57.8867 488.218 47.1781 488.218 33.9683C488.218 20.7585 478.623 10.0499 466.788 10.0499C454.953 10.0499 445.359 20.7585 445.359 33.9683C445.359 47.1781 454.953 57.8867 466.788 57.8867Z" fill="#FFB6B6"/>
<path d="M453.135 19.9311C453.964 19.9383 454.789 20.0592 455.592 20.291C457.174 20.7157 458.782 21.0165 460.402 21.1913C465.363 21.7122 470.024 24.0736 473.641 27.8984C477.259 31.7232 479.624 36.7906 480.358 42.2915C481.603 41.0797 484.437 38.8507 486.759 40.9223C486.794 40.9552 486.815 40.9721 486.897 40.9289C488.439 40.1123 491.177 30.0602 491.26 21.2096C491.304 16.512 490.641 10.5134 487.237 8.61374L487.058 8.51365L487.011 8.29611C486.783 7.23941 484.243 5.43564 479.827 4.03171C471.802 1.4804 459.839 -3.4896 453.103 3.82462C452.593 6.29042 450.935 11.5672 449.259 12.1654C447.404 12.8274 445.802 13.3987 445.55 15.9388C445.339 19.5534 445.354 23.1801 445.595 26.7924C446.224 24.582 447.458 22.6473 449.123 21.2608C450.308 20.371 451.707 19.9069 453.135 19.9311Z" fill="#2F2E41"/>
<path d="M592 439.092C592 439.211 591.979 439.329 591.939 439.44C591.898 439.55 591.838 439.65 591.762 439.735C591.687 439.819 591.597 439.886 591.498 439.932C591.399 439.977 591.293 440 591.186 440H0.813809C0.597976 440 0.390991 439.904 0.238375 439.734C0.0857579 439.564 9.53674e-06 439.333 9.53674e-06 439.092C9.53674e-06 438.851 0.0857579 438.62 0.238375 438.449C0.390991 438.279 0.597976 438.183 0.813809 438.183H591.186C591.293 438.183 591.399 438.206 591.498 438.252C591.597 438.297 591.687 438.364 591.762 438.449C591.838 438.533 591.898 438.633 591.939 438.744C591.979 438.854 592 438.972 592 439.092Z" fill="#CCCCCC"/>
<path d="M244.329 77.1869L163.889 97.3863C161.734 97.9304 159.86 99.4065 158.679 101.491C157.497 103.575 157.105 106.097 157.587 108.504L179.645 217.934L274.156 194.201C274.933 194.009 275.644 193.571 276.203 192.94L254.289 84.2207C253.802 81.8152 252.479 79.7237 250.612 78.4051C248.745 77.0864 246.485 76.6483 244.329 77.1869Z" fill="#E6E6E6"/>
<path d="M215.109 92.2551L171.026 103.325C169.064 103.82 167.357 105.164 166.281 107.061C165.205 108.959 164.847 111.255 165.286 113.447L186.024 216.332L269.964 195.254L254.861 120.327C252.916 110.726 247.638 102.379 240.185 97.1167C232.733 91.8541 223.715 90.1057 215.109 92.2551Z" fill="white"/>
<path d="M253.822 189.708L198.482 203.604C198.245 203.663 198.021 203.774 197.822 203.93C197.623 204.086 197.453 204.284 197.323 204.513C197.193 204.742 197.105 204.998 197.063 205.265C197.022 205.532 197.028 205.806 197.081 206.071C197.134 206.336 197.234 206.586 197.374 206.808C197.514 207.029 197.692 207.218 197.898 207.363C198.103 207.508 198.332 207.606 198.572 207.652C198.812 207.698 199.057 207.69 199.294 207.63L254.633 193.734C254.871 193.675 255.095 193.564 255.294 193.409C255.493 193.253 255.663 193.054 255.793 192.825C255.924 192.596 256.012 192.34 256.054 192.073C256.095 191.805 256.089 191.531 256.036 191.267C255.983 191.002 255.883 190.751 255.743 190.529C255.602 190.308 255.424 190.119 255.219 189.974C255.013 189.829 254.784 189.731 254.544 189.686C254.304 189.64 254.059 189.647 253.822 189.708Z" fill="#E4E4E4"/>
<path d="M252.217 181.745L196.877 195.642C196.399 195.762 195.982 196.09 195.72 196.553C195.457 197.015 195.37 197.576 195.478 198.11C195.586 198.645 195.879 199.11 196.294 199.402C196.709 199.695 197.211 199.792 197.69 199.672L253.029 185.776C253.266 185.716 253.49 185.605 253.689 185.449C253.888 185.293 254.057 185.094 254.187 184.865C254.317 184.636 254.405 184.38 254.446 184.113C254.488 183.846 254.482 183.572 254.428 183.307C254.375 183.042 254.276 182.792 254.135 182.57C253.995 182.349 253.818 182.16 253.612 182.015C253.407 181.87 253.178 181.771 252.939 181.725C252.699 181.679 252.454 181.686 252.217 181.745Z" fill="#E4E4E4"/>
<path d="M219.262 181.66L195.273 187.683C194.795 187.804 194.379 188.131 194.117 188.593C193.855 189.056 193.768 189.616 193.875 190.15C193.983 190.683 194.276 191.148 194.691 191.44C195.105 191.733 195.607 191.83 196.085 191.71L220.074 185.686C220.311 185.627 220.536 185.517 220.735 185.361C220.934 185.205 221.103 185.006 221.234 184.777C221.364 184.548 221.453 184.292 221.494 184.025C221.536 183.757 221.53 183.483 221.476 183.219C221.423 182.954 221.323 182.703 221.183 182.482C221.043 182.26 220.865 182.071 220.659 181.926C220.453 181.781 220.224 181.683 219.984 181.638C219.745 181.592 219.499 181.599 219.262 181.66Z" fill="#E4E4E4"/>
<path d="M247.252 157.115L191.913 171.011C191.676 171.071 191.451 171.182 191.253 171.338C191.054 171.494 190.885 171.693 190.755 171.922C190.493 172.385 190.406 172.945 190.513 173.48C190.621 174.014 190.915 174.479 191.33 174.772C191.744 175.065 192.246 175.162 192.725 175.042L248.064 161.145C248.302 161.086 248.526 160.975 248.724 160.818C248.923 160.662 249.092 160.464 249.222 160.234C249.352 160.005 249.44 159.75 249.482 159.482C249.523 159.215 249.517 158.941 249.464 158.677C249.41 158.412 249.311 158.162 249.171 157.94C249.031 157.718 248.853 157.529 248.648 157.384C248.442 157.239 248.213 157.141 247.974 157.095C247.734 157.048 247.489 157.055 247.252 157.115Z" fill="#E4E4E4"/>
<path d="M245.648 149.156L190.309 163.053C190.071 163.112 189.847 163.223 189.648 163.379C189.449 163.535 189.28 163.733 189.15 163.962C189.019 164.191 188.931 164.447 188.89 164.714C188.848 164.981 188.854 165.255 188.907 165.52C188.961 165.785 189.06 166.035 189.2 166.257C189.341 166.478 189.519 166.667 189.724 166.812C189.93 166.957 190.159 167.055 190.398 167.101C190.638 167.147 190.883 167.139 191.12 167.079L246.459 153.183C246.697 153.124 246.921 153.013 247.119 152.857C247.318 152.701 247.487 152.502 247.617 152.273C247.747 152.044 247.835 151.789 247.877 151.522C247.918 151.254 247.912 150.981 247.859 150.716C247.806 150.452 247.706 150.202 247.566 149.98C247.426 149.758 247.248 149.57 247.043 149.425C246.838 149.28 246.609 149.182 246.369 149.136C246.13 149.09 245.885 149.097 245.648 149.156Z" fill="#E4E4E4"/>
<path d="M212.692 149.067L188.704 155.091C188.467 155.15 188.242 155.261 188.044 155.418C187.845 155.574 187.676 155.772 187.546 156.001C187.416 156.231 187.328 156.486 187.286 156.754C187.245 157.021 187.251 157.295 187.304 157.559C187.358 157.824 187.457 158.074 187.597 158.296C187.737 158.518 187.915 158.706 188.121 158.851C188.326 158.996 188.555 159.095 188.794 159.141C189.034 159.187 189.279 159.181 189.516 159.121L213.505 153.097C213.742 153.038 213.966 152.927 214.165 152.77C214.364 152.614 214.533 152.416 214.663 152.186C214.792 151.957 214.881 151.702 214.922 151.434C214.964 151.167 214.957 150.893 214.904 150.629C214.851 150.364 214.751 150.114 214.611 149.892C214.471 149.67 214.293 149.481 214.088 149.336C213.883 149.191 213.654 149.093 213.414 149.047C213.175 149 212.93 149.007 212.692 149.067Z" fill="#E4E4E4"/>
<path d="M240.682 124.522L185.343 138.418C184.864 138.538 184.448 138.866 184.185 139.329C183.923 139.792 183.836 140.352 183.944 140.887C184.052 141.421 184.345 141.886 184.76 142.179C185.175 142.472 185.677 142.569 186.156 142.449L241.495 128.552C241.732 128.493 241.956 128.382 242.155 128.225C242.353 128.069 242.523 127.871 242.653 127.641C242.782 127.412 242.871 127.157 242.912 126.889C242.954 126.622 242.947 126.348 242.894 126.084C242.841 125.819 242.741 125.569 242.601 125.347C242.461 125.125 242.283 124.936 242.078 124.791C241.873 124.646 241.644 124.548 241.404 124.502C241.165 124.455 240.92 124.462 240.682 124.522Z" fill="#E6E6E6"/>
<path d="M239.078 116.564L183.739 130.46C183.502 130.52 183.278 130.631 183.079 130.787C182.88 130.943 182.711 131.142 182.581 131.371C182.319 131.834 182.232 132.394 182.34 132.929C182.448 133.463 182.741 133.928 183.156 134.221C183.571 134.514 184.073 134.611 184.552 134.49L239.891 120.594C240.128 120.535 240.352 120.423 240.551 120.267C240.749 120.111 240.918 119.912 241.048 119.683C241.178 119.454 241.267 119.198 241.308 118.931C241.349 118.664 241.343 118.39 241.29 118.125C241.237 117.861 241.137 117.61 240.997 117.389C240.857 117.167 240.679 116.978 240.474 116.833C240.269 116.688 240.04 116.59 239.8 116.544C239.561 116.497 239.315 116.504 239.078 116.564Z" fill="#E6E6E6"/>
<path d="M206.123 116.474L182.134 122.498C181.655 122.618 181.239 122.946 180.976 123.409C180.714 123.872 180.627 124.432 180.735 124.966C180.843 125.501 181.136 125.966 181.551 126.259C181.966 126.551 182.468 126.648 182.947 126.528L206.935 120.504C207.172 120.445 207.397 120.334 207.595 120.177C207.794 120.021 207.963 119.823 208.093 119.593C208.223 119.364 208.311 119.109 208.353 118.841C208.394 118.574 208.388 118.3 208.335 118.036C208.281 117.771 208.182 117.521 208.042 117.299C207.902 117.077 207.724 116.889 207.518 116.744C207.313 116.598 207.084 116.5 206.845 116.454C206.605 116.408 206.36 116.414 206.123 116.474Z" fill="#E6E6E6"/>
<path d="M83.851 204.155C83.3267 204.156 82.824 204.388 82.4532 204.802C82.0824 205.216 81.8738 205.777 81.8732 206.362V434.626C81.8738 435.211 82.0824 435.772 82.4532 436.186C82.8239 436.6 83.3266 436.833 83.851 436.834H340.263C340.787 436.833 341.29 436.6 341.66 436.186C342.031 435.772 342.24 435.211 342.24 434.626V243.003C342.24 242.418 342.031 241.857 341.66 241.443C341.29 241.029 340.787 240.796 340.263 240.796H193.099C191.605 240.797 190.165 240.176 189.06 239.054L155.975 205.501C155.122 204.634 154.009 204.154 152.855 204.155H83.851Z" fill="#3F3D56"/>
<path d="M389.855 144.452L252.561 78.5706C248.879 76.8097 244.723 76.7506 241.002 78.4061C237.282 80.0616 234.302 83.2966 232.716 87.4014L160.775 274.177L322.087 351.584C323.41 352.225 324.87 352.426 326.293 352.165L397.767 166.602C399.344 162.493 399.397 157.854 397.914 153.701C396.431 149.549 393.533 146.222 389.855 144.452Z" fill="#E6E6E6"/>
<path d="M332.614 131.865L257.373 95.7605C254.021 94.1564 250.236 94.1016 246.848 95.6082C243.461 97.1147 240.746 100.06 239.301 103.797L171.662 279.402L314.932 348.15L364.19 220.265C370.486 203.866 370.697 185.35 364.778 168.778C358.858 152.205 347.291 138.931 332.614 131.865Z" fill="white"/>
<path d="M296.531 320.842L202.077 275.519C201.673 275.324 201.238 275.22 200.798 275.213C200.357 275.205 199.92 275.295 199.51 275.477C199.101 275.659 198.728 275.929 198.412 276.272C198.096 276.614 197.844 277.023 197.67 277.475C197.496 277.927 197.404 278.412 197.398 278.904C197.393 279.396 197.474 279.884 197.637 280.34C197.801 280.797 198.043 281.213 198.351 281.565C198.659 281.917 199.025 282.197 199.43 282.391L293.884 327.715C294.288 327.91 294.723 328.014 295.163 328.021C295.604 328.028 296.041 327.938 296.45 327.756C296.86 327.575 297.233 327.305 297.549 326.962C297.864 326.619 298.117 326.21 298.291 325.758C298.465 325.307 298.557 324.821 298.563 324.329C298.568 323.838 298.487 323.35 298.324 322.893C298.16 322.436 297.918 322.02 297.61 321.669C297.302 321.317 296.936 321.036 296.531 320.842Z" fill="#E4E4E4"/>
<path d="M301.765 307.252L207.312 261.929C206.495 261.537 205.572 261.523 204.745 261.891C203.919 262.259 203.258 262.978 202.907 263.89C202.555 264.802 202.543 265.832 202.872 266.755C203.201 267.677 203.845 268.415 204.662 268.808L299.115 314.132C299.52 314.326 299.955 314.429 300.396 314.436C300.836 314.442 301.273 314.352 301.682 314.17C302.092 313.988 302.465 313.717 302.78 313.374C303.096 313.031 303.348 312.622 303.522 312.171C303.696 311.719 303.788 311.234 303.794 310.742C303.8 310.25 303.719 309.762 303.556 309.305C303.393 308.849 303.151 308.432 302.844 308.08C302.536 307.728 302.17 307.447 301.765 307.252Z" fill="#E4E4E4"/>
<path d="M253.488 267.993L212.544 248.346C212.139 248.151 211.705 248.047 211.264 248.041C210.824 248.034 210.387 248.124 209.978 248.305C209.569 248.487 209.196 248.757 208.88 249.1C208.565 249.443 208.313 249.852 208.139 250.303C207.965 250.755 207.873 251.24 207.867 251.731C207.861 252.223 207.942 252.711 208.105 253.167C208.269 253.623 208.511 254.039 208.818 254.391C209.126 254.743 209.492 255.024 209.897 255.218L250.841 274.865C251.245 275.059 251.68 275.163 252.12 275.17C252.56 275.177 252.997 275.087 253.406 274.905C253.816 274.723 254.189 274.453 254.504 274.11C254.82 273.768 255.071 273.359 255.245 272.907C255.419 272.456 255.512 271.971 255.518 271.479C255.523 270.988 255.442 270.5 255.279 270.043C255.116 269.587 254.874 269.171 254.566 268.819C254.259 268.467 253.892 268.186 253.488 267.993Z" fill="#E4E4E4"/>
<path d="M317.958 265.213L223.504 219.889C222.687 219.498 221.765 219.485 220.939 219.853C220.113 220.221 219.452 220.94 219.101 221.852C218.75 222.763 218.738 223.793 219.066 224.715C219.395 225.637 220.038 226.375 220.855 226.768L315.308 272.092C315.713 272.287 316.148 272.391 316.589 272.398C317.03 272.405 317.467 272.315 317.877 272.133C318.287 271.951 318.66 271.681 318.976 271.338C319.292 270.995 319.545 270.585 319.719 270.133C319.893 269.681 319.985 269.195 319.991 268.703C319.997 268.211 319.916 267.723 319.752 267.266C319.589 266.809 319.346 266.392 319.038 266.04C318.73 265.688 318.363 265.407 317.958 265.213Z" fill="#E4E4E4"/>
<path d="M323.189 251.63L228.736 206.306C228.332 206.111 227.897 206.007 227.457 206C227.016 205.993 226.579 206.083 226.169 206.264C225.76 206.446 225.387 206.716 225.071 207.059C224.755 207.402 224.503 207.811 224.329 208.262C224.155 208.714 224.063 209.2 224.057 209.691C224.051 210.183 224.133 210.671 224.296 211.128C224.46 211.584 224.702 212 225.01 212.352C225.318 212.704 225.684 212.985 226.089 213.178L320.542 258.502C320.947 258.697 321.382 258.801 321.822 258.808C322.263 258.815 322.7 258.725 323.109 258.544C323.519 258.362 323.892 258.092 324.208 257.749C324.523 257.406 324.775 256.997 324.949 256.546C325.123 256.094 325.216 255.608 325.222 255.117C325.227 254.625 325.146 254.137 324.983 253.68C324.819 253.224 324.577 252.808 324.269 252.456C323.961 252.104 323.594 251.823 323.189 251.63Z" fill="#E4E4E4"/>
<path d="M274.915 212.363L233.971 192.716C233.154 192.324 232.23 192.311 231.404 192.679C230.578 193.046 229.917 193.765 229.566 194.677C229.214 195.589 229.202 196.62 229.531 197.542C229.86 198.464 230.504 199.203 231.321 199.595L272.265 219.242C272.67 219.437 273.105 219.54 273.545 219.547C273.986 219.554 274.423 219.463 274.833 219.281C275.242 219.099 275.615 218.829 275.931 218.486C276.247 218.143 276.499 217.734 276.673 217.282C276.847 216.83 276.939 216.345 276.945 215.853C276.951 215.361 276.87 214.873 276.707 214.416C276.544 213.959 276.301 213.543 275.994 213.191C275.686 212.838 275.32 212.557 274.915 212.363Z" fill="#E4E4E4"/>
<path d="M339.385 209.583L244.932 164.26C244.114 163.869 243.192 163.856 242.367 164.224C241.541 164.592 240.88 165.311 240.529 166.222C240.178 167.134 240.166 168.163 240.494 169.085C240.823 170.007 241.466 170.746 242.282 171.139L336.735 216.463C337.14 216.657 337.575 216.76 338.015 216.767C338.456 216.774 338.893 216.684 339.303 216.502C339.712 216.32 340.085 216.049 340.401 215.706C340.717 215.363 340.969 214.954 341.143 214.502C341.317 214.05 341.409 213.565 341.415 213.073C341.421 212.581 341.34 212.093 341.177 211.636C341.013 211.18 340.771 210.763 340.464 210.411C340.156 210.059 339.79 209.777 339.385 209.583Z" fill="white"/>
<path d="M344.617 196L250.163 150.676C249.346 150.286 248.424 150.273 247.598 150.641C246.772 151.009 246.111 151.727 245.76 152.639C245.409 153.55 245.397 154.58 245.725 155.502C246.054 156.424 246.697 157.163 247.514 157.556L341.967 202.879C342.372 203.075 342.807 203.18 343.249 203.188C343.69 203.195 344.128 203.106 344.538 202.924C344.949 202.742 345.323 202.472 345.639 202.129C345.956 201.785 346.208 201.376 346.382 200.923C346.557 200.47 346.649 199.984 346.655 199.491C346.66 198.999 346.579 198.51 346.415 198.053C346.251 197.595 346.007 197.179 345.699 196.826C345.39 196.474 345.023 196.194 344.617 196Z" fill="white"/>
<path d="M296.342 156.733L255.398 137.086C254.581 136.695 253.658 136.681 252.831 137.049C252.005 137.417 251.344 138.136 250.993 139.048C250.641 139.96 250.629 140.99 250.958 141.912C251.287 142.835 251.931 143.573 252.748 143.966L293.692 163.613C294.097 163.807 294.532 163.911 294.973 163.917C295.413 163.924 295.851 163.834 296.26 163.652C296.669 163.47 297.042 163.199 297.358 162.856C297.674 162.513 297.926 162.104 298.1 161.652C298.274 161.201 298.366 160.715 298.372 160.223C298.378 159.731 298.297 159.243 298.134 158.786C297.971 158.33 297.728 157.913 297.421 157.561C297.113 157.209 296.747 156.928 296.342 156.733Z" fill="white"/>
<path d="M194.407 212.291L113.967 232.491C111.812 233.035 109.938 234.511 108.757 236.595C107.575 238.679 107.183 241.201 107.665 243.608L129.723 353.039L224.234 329.305C225.011 329.113 225.722 328.676 226.281 328.045L204.367 219.325C203.88 216.919 202.557 214.828 200.69 213.509C198.823 212.191 196.563 211.753 194.407 212.291Z" fill="#E6E6E6"/>
<path d="M165.187 227.359L121.104 238.429C119.142 238.924 117.435 240.268 116.359 242.165C115.283 244.063 114.925 246.359 115.364 248.551L136.102 351.437L220.042 330.358L204.939 255.431C202.994 245.831 197.716 237.484 190.263 232.221C182.811 226.958 173.793 225.21 165.187 227.359Z" fill="white"/>
<path d="M203.9 324.812L148.56 338.708C148.323 338.767 148.099 338.878 147.9 339.034C147.701 339.19 147.531 339.388 147.401 339.617C147.271 339.847 147.183 340.102 147.141 340.369C147.1 340.637 147.106 340.911 147.159 341.175C147.212 341.44 147.312 341.69 147.452 341.912C147.592 342.134 147.77 342.322 147.976 342.467C148.181 342.612 148.41 342.71 148.65 342.756C148.89 342.802 149.135 342.795 149.372 342.735L204.711 328.838C204.949 328.779 205.173 328.669 205.372 328.513C205.571 328.357 205.741 328.159 205.871 327.929C206.002 327.7 206.09 327.445 206.132 327.177C206.173 326.91 206.167 326.636 206.114 326.371C206.061 326.106 205.961 325.856 205.821 325.634C205.68 325.412 205.502 325.223 205.297 325.078C205.091 324.934 204.862 324.836 204.622 324.79C204.382 324.744 204.137 324.752 203.9 324.812Z" fill="#E4E4E4"/>
<path d="M202.295 316.85L146.955 330.746C146.477 330.866 146.06 331.194 145.798 331.657C145.535 332.12 145.448 332.68 145.556 333.215C145.664 333.749 145.957 334.214 146.372 334.507C146.787 334.8 147.289 334.897 147.768 334.776L203.107 320.88C203.586 320.76 204.002 320.432 204.265 319.969C204.527 319.506 204.614 318.946 204.506 318.411C204.399 317.877 204.105 317.412 203.69 317.119C203.275 316.826 202.773 316.729 202.295 316.85Z" fill="#E4E4E4"/>
<path d="M169.34 316.764L145.351 322.788C145.114 322.847 144.89 322.958 144.692 323.114C144.494 323.271 144.325 323.469 144.195 323.698C144.065 323.927 143.977 324.182 143.935 324.449C143.894 324.716 143.9 324.99 143.953 325.254C144.007 325.518 144.106 325.768 144.246 325.99C144.386 326.211 144.563 326.4 144.769 326.545C144.974 326.69 145.203 326.788 145.442 326.834C145.681 326.88 145.926 326.874 146.163 326.814L170.152 320.79C170.389 320.731 170.614 320.621 170.813 320.465C171.012 320.309 171.181 320.111 171.312 319.882C171.442 319.652 171.53 319.397 171.572 319.129C171.614 318.862 171.608 318.588 171.554 318.323C171.501 318.058 171.401 317.808 171.261 317.586C171.121 317.364 170.943 317.175 170.737 317.031C170.531 316.886 170.302 316.788 170.062 316.742C169.823 316.696 169.577 316.704 169.34 316.764Z" fill="#E4E4E4"/>
<path d="M197.33 292.219L141.991 306.115C141.754 306.175 141.529 306.286 141.331 306.442C141.132 306.599 140.963 306.797 140.833 307.026C140.571 307.489 140.484 308.05 140.591 308.584C140.699 309.118 140.993 309.583 141.408 309.876C141.822 310.169 142.324 310.266 142.803 310.146L198.142 296.249C198.621 296.129 199.038 295.802 199.3 295.339C199.563 294.876 199.649 294.315 199.542 293.781C199.434 293.246 199.14 292.782 198.726 292.489C198.311 292.196 197.809 292.099 197.33 292.219Z" fill="#E4E4E4"/>
<path d="M195.726 284.261L140.387 298.157C140.149 298.216 139.925 298.327 139.726 298.483C139.527 298.639 139.358 298.837 139.228 299.066C139.097 299.295 139.009 299.551 138.967 299.818C138.926 300.086 138.932 300.359 138.985 300.624C139.039 300.889 139.138 301.139 139.278 301.361C139.419 301.583 139.596 301.771 139.802 301.916C140.008 302.061 140.237 302.159 140.476 302.205C140.716 302.251 140.961 302.244 141.198 302.184L196.537 288.287C196.775 288.228 196.999 288.117 197.197 287.961C197.396 287.805 197.565 287.607 197.695 287.378C197.825 287.149 197.913 286.893 197.955 286.626C197.996 286.359 197.99 286.085 197.937 285.821C197.884 285.556 197.784 285.306 197.644 285.084C197.504 284.863 197.326 284.674 197.121 284.529C196.916 284.384 196.687 284.286 196.447 284.24C196.208 284.194 195.963 284.201 195.726 284.261Z" fill="#E4E4E4"/>
<path d="M162.77 284.171L138.782 290.195C138.303 290.315 137.886 290.643 137.624 291.106C137.362 291.569 137.275 292.129 137.382 292.664C137.49 293.198 137.784 293.663 138.198 293.956C138.613 294.249 139.115 294.346 139.594 294.225L163.583 288.202C164.062 288.081 164.478 287.754 164.741 287.291C165.003 286.828 165.09 286.267 164.982 285.733C164.874 285.198 164.581 284.734 164.166 284.441C163.751 284.148 163.249 284.051 162.77 284.171Z" fill="#E4E4E4"/>
<path d="M190.76 259.626L135.421 273.523C135.184 273.582 134.96 273.693 134.761 273.849C134.563 274.006 134.393 274.204 134.263 274.433C134.001 274.896 133.914 275.457 134.022 275.991C134.13 276.526 134.423 276.991 134.838 277.283C135.253 277.576 135.755 277.673 136.234 277.553L191.573 263.657C191.81 263.597 192.034 263.486 192.233 263.33C192.431 263.173 192.601 262.975 192.73 262.746C192.86 262.517 192.949 262.261 192.99 261.994C193.032 261.726 193.025 261.453 192.972 261.188C192.919 260.923 192.819 260.673 192.679 260.451C192.539 260.23 192.361 260.041 192.156 259.896C191.951 259.751 191.722 259.652 191.482 259.606C191.243 259.56 190.997 259.567 190.76 259.626Z" fill="#E6E6E6"/>
<path d="M189.156 251.668L133.817 265.564C133.58 265.624 133.356 265.735 133.157 265.891C132.958 266.048 132.789 266.246 132.659 266.475C132.397 266.938 132.31 267.499 132.418 268.033C132.526 268.567 132.819 269.032 133.234 269.325C133.649 269.618 134.151 269.715 134.629 269.595L189.969 255.698C190.448 255.578 190.864 255.25 191.126 254.788C191.389 254.325 191.476 253.764 191.368 253.23C191.26 252.695 190.967 252.23 190.552 251.938C190.137 251.645 189.635 251.548 189.156 251.668Z" fill="#E6E6E6"/>
<path d="M156.201 251.578L132.212 257.602C131.733 257.722 131.317 258.05 131.054 258.513C130.792 258.976 130.705 259.536 130.813 260.071C130.921 260.605 131.214 261.07 131.629 261.363C132.044 261.656 132.546 261.753 133.025 261.633L157.013 255.609C157.25 255.549 157.475 255.438 157.673 255.282C157.872 255.125 158.041 254.927 158.171 254.698C158.301 254.469 158.389 254.213 158.431 253.946C158.472 253.678 158.466 253.405 158.413 253.14C158.359 252.875 158.26 252.625 158.12 252.403C157.98 252.182 157.802 251.993 157.596 251.848C157.391 251.703 157.162 251.604 156.923 251.558C156.683 251.512 156.438 251.519 156.201 251.578Z" fill="#E6E6E6"/>
<path d="M82.1521 264.109C81.8924 264.109 81.6352 264.166 81.3953 264.277C81.1553 264.388 80.9373 264.55 80.7536 264.755C80.57 264.96 80.4243 265.203 80.3248 265.471C80.2254 265.739 80.1742 266.026 80.1742 266.316C80.1742 266.399 80.2351 436.4 80.2351 436.4C80.2892 436.939 80.5196 437.437 80.8822 437.799C81.2448 438.161 81.7142 438.361 82.2005 438.36H357.642C358.128 438.361 358.598 438.161 358.96 437.799C359.323 437.437 359.553 436.939 359.607 436.4L376.752 266.564C376.783 266.255 376.756 265.942 376.671 265.646C376.587 265.35 376.447 265.077 376.262 264.846C376.077 264.613 375.85 264.426 375.596 264.299C375.341 264.172 375.066 264.107 374.787 264.109L82.1521 264.109Z" fill="#3F3D56"/>
<path d="M101.589 273.521C98.7945 273.53 96.1155 274.766 94.1309 276.962C92.1463 279.157 91.0156 282.137 90.9831 285.256L91.327 417.007C91.3148 418.57 91.5801 420.121 92.1076 421.569C92.6351 423.017 93.4144 424.335 94.4005 425.445C95.3866 426.555 96.56 427.436 97.8529 428.038C99.1458 428.639 100.533 428.949 101.933 428.949H276.782C296.835 428.964 316.19 420.726 331.142 405.811C346.095 390.896 355.596 370.351 357.828 348.107L364.029 286.685C364.196 285.029 364.048 283.352 363.595 281.764C363.142 280.176 362.393 278.713 361.398 277.47C360.403 276.228 359.185 275.234 357.822 274.553C356.459 273.872 354.983 273.521 353.489 273.521H101.589ZM369.534 273.521L369.503 272.757H369.534V273.521Z" fill="white"/>
<path d="M177.965 372.228H110.231C109.531 372.228 108.86 371.918 108.365 371.366C107.87 370.813 107.592 370.064 107.592 369.283C107.592 368.502 107.87 367.753 108.365 367.2C108.86 366.648 109.531 366.337 110.231 366.337H177.965C181.368 366.284 181.402 372.282 177.965 372.228Z" fill="#E4E4E4"/>
<path d="M269.21 387.637H110.231C109.531 387.637 108.86 387.326 108.365 386.774C107.87 386.221 107.592 385.472 107.592 384.691C107.592 383.91 107.87 383.161 108.365 382.608C108.86 382.056 109.531 381.745 110.231 381.745H269.21C272.614 381.692 272.648 387.69 269.21 387.637Z" fill="#E4E4E4"/>
</g>
<defs>
<clipPath id="clip0_28_367">
<rect width="592" height="440" fill="white"/>
</clipPath>
</defs>
</svg>
