<svg width="462" height="690" viewBox="0 0 462 690" fill="none" xmlns="http://www.w3.org/2000/svg">
<g clip-path="url(#clip0_28_135)">
<path d="M0.726137 519.056L-7.62939e-06 520.92L403.196 678.052L403.922 676.189L0.726137 519.056Z" fill="#CACACA"/>
<path d="M288.832 0.306808L64.7164 59.3871C63.8201 59.6409 62.9924 60.093 62.2946 60.7101C61.5159 61.3921 60.8515 62.1945 60.3267 63.0868C59.7503 64.0532 59.3056 65.0923 59.0045 66.1765C58.6854 67.3121 58.522 68.4858 58.5189 69.6655V402.133C58.5195 403.294 58.683 404.449 59.0045 405.564C59.3001 406.603 59.7456 407.593 60.3267 408.503C60.8485 409.332 61.5151 410.059 62.2946 410.652C63.004 411.193 63.8358 411.55 64.7164 411.693L288.832 444.691C290.132 444.89 291.46 444.788 292.714 444.392C293.907 444.009 294.997 443.359 295.902 442.491C296.84 441.586 297.577 440.493 298.063 439.283C298.598 437.949 298.869 436.523 298.861 435.085V8.74878C298.875 7.33994 298.604 5.94277 298.063 4.64188C297.585 3.50036 296.844 2.48767 295.902 1.68607C294.984 0.917023 293.888 0.390495 292.714 0.154693C291.425 -0.0942355 290.097 -0.042174 288.832 0.306808Z" fill="#F2F2F2"/>
<path d="M70.2407 68.7164C69.6079 68.9021 69.0246 69.2269 68.5334 69.667C67.987 70.1484 67.5211 70.714 67.1533 71.3426C66.7504 72.0263 66.4415 72.7613 66.2352 73.5276C66.0173 74.3278 65.9106 75.1542 65.9183 75.9835V394.956C65.9092 395.772 66.0159 396.585 66.2352 397.372C66.4375 398.105 66.7463 398.804 67.1518 399.447C67.5166 400.033 67.9838 400.548 68.531 400.968C69.0305 401.353 69.6166 401.61 70.2383 401.717L280.167 429.999C281.061 430.108 281.969 430.009 282.818 429.709C283.633 429.415 284.371 428.942 284.977 428.324C285.609 427.677 286.1 426.906 286.42 426.06C286.771 425.128 286.942 424.137 286.923 423.141V22.0717C286.946 21.094 286.775 20.1214 286.42 19.2102C286.106 18.4101 285.612 17.6931 284.977 17.1147C284.363 16.5631 283.621 16.1734 282.818 15.9811C281.945 15.7798 281.037 15.786 280.167 15.9993L70.2407 68.7164Z" fill="white"/>
<path d="M79.1207 81.4688C78.6883 81.5803 78.2907 81.7981 77.9641 82.1026C77.5864 82.4503 77.2686 82.858 77.0237 83.3092C76.7441 83.816 76.531 84.3568 76.3899 84.9182C76.2341 85.5195 76.1542 86.1381 76.1522 86.7593V131.186C76.1488 131.775 76.2272 132.361 76.3851 132.929C76.5167 133.412 76.7311 133.869 77.0189 134.279C77.2607 134.628 77.5848 134.911 77.9625 135.103C78.3209 135.279 78.726 135.336 79.1191 135.267L266.754 102.954C267.373 102.84 267.959 102.588 268.468 102.217C269.016 101.819 269.491 101.329 269.872 100.769C270.285 100.169 270.605 99.5104 270.823 98.8154C271.053 98.0876 271.171 97.3289 271.172 96.5655V42.1665C271.179 41.4489 271.06 40.7355 270.823 40.0584C270.62 39.4748 270.296 38.9406 269.872 38.4905C269.482 38.072 268.987 37.7659 268.439 37.6042C267.89 37.4426 267.308 37.4313 266.754 37.5716L79.1207 81.4688Z" fill="#F2F2F2"/>
<path d="M79.1207 156.893C78.6941 156.97 78.2924 157.15 77.9498 157.416C77.5735 157.705 77.2516 158.058 76.9991 158.46C76.7198 158.899 76.5063 159.376 76.3653 159.877C76.2163 160.412 76.1443 160.965 76.1514 161.519V256.475C76.1444 257.018 76.2186 257.558 76.3717 258.079C76.5085 258.547 76.7227 258.988 77.0055 259.385C77.2567 259.742 77.5807 260.041 77.9561 260.263C78.3108 260.472 78.7149 260.581 79.1263 260.58L266.759 255.231C267.364 255.202 267.956 255.04 268.492 254.756C269.032 254.468 269.511 254.079 269.903 253.609C270.313 253.12 270.632 252.561 270.846 251.959C271.073 251.324 271.184 250.653 271.176 249.979V133.708C271.188 133.051 271.076 132.398 270.846 131.782C270.638 131.228 270.317 130.722 269.903 130.298C269.508 129.895 269.025 129.588 268.492 129.4C267.934 129.207 267.338 129.149 266.753 129.23L79.1207 156.893Z" fill="#F2F2F2"/>
<path d="M95.5602 84.0412L243.45 50.5134V61.8422L95.5602 93.7555V84.0412Z" fill="white"/>
<path d="M95.8185 104.458L243.801 74.319V79.5817L95.8185 108.969V104.458Z" fill="white"/>
<path d="M95.8185 112.44L243.801 83.63V88.8928L95.8185 116.952V112.44Z" fill="white"/>
<path d="M95.8185 120.422L243.801 92.941V98.2038L95.8185 124.934V120.422Z" fill="white"/>
<path d="M177.869 257.952L252.915 255.828C253.176 255.82 253.434 255.769 253.678 255.675C253.925 255.581 254.156 255.449 254.363 255.285C254.578 255.114 254.767 254.913 254.925 254.688C255.092 254.451 255.225 254.192 255.321 253.918C255.52 253.365 255.571 252.769 255.47 252.19C255.422 251.91 255.336 251.638 255.216 251.382C255.097 251.129 254.942 250.894 254.756 250.686L205.284 195.842C205.07 195.599 204.801 195.409 204.501 195.287C204.218 195.176 203.914 195.132 203.611 195.161C203.298 195.191 202.995 195.289 202.723 195.448C202.421 195.626 202.156 195.861 201.944 196.14L190.434 211.013C190.001 211.583 189.46 212.061 188.841 212.421C188.288 212.74 187.671 212.933 187.035 212.984C186.42 213.031 185.803 212.93 185.235 212.69C184.627 212.428 184.087 212.031 183.657 211.527L149.737 172.55C149.548 172.329 149.308 172.156 149.038 172.046C148.786 171.948 148.514 171.913 148.246 171.946C147.963 171.982 147.692 172.082 147.453 172.237C147.181 172.415 146.945 172.642 146.758 172.908L87.1626 255.902C87.029 256.09 86.9198 256.294 86.8378 256.51C86.7527 256.733 86.6926 256.964 86.6588 257.201C86.6239 257.441 86.6148 257.685 86.6319 257.928C86.6488 258.17 86.6932 258.409 86.7642 258.641C86.8308 258.861 86.9253 259.072 87.0454 259.268C87.1533 259.445 87.2868 259.605 87.4415 259.744C87.5841 259.871 87.7479 259.972 87.9255 260.042C88.098 260.11 88.2823 260.142 88.4674 260.137L177.958 257.567L177.869 257.952Z" fill="white"/>
<path d="M101.526 166.861C102.495 166.73 103.482 166.867 104.378 167.257C105.292 167.663 106.096 168.278 106.727 169.053C107.433 169.921 107.971 170.913 108.312 171.979C108.706 173.195 108.904 174.466 108.896 175.744C108.896 177.068 108.699 178.384 108.312 179.65C107.956 180.829 107.422 181.947 106.727 182.963C106.099 183.891 105.304 184.695 104.382 185.333C103.534 185.922 102.555 186.295 101.53 186.42C100.561 186.531 99.5803 186.375 98.6935 185.968C97.7947 185.546 97.0061 184.92 96.3897 184.141C95.6992 183.275 95.1737 182.289 94.8393 181.232C94.4571 180.033 94.2663 178.782 94.2736 177.523C94.2732 176.22 94.4638 174.924 94.8393 173.676C95.1865 172.509 95.7078 171.402 96.3857 170.391C97.0025 169.462 97.7831 168.653 98.6895 168.004C99.5295 167.4 100.503 167.008 101.526 166.861Z" fill="white"/>
<path d="M79.1207 282.883C78.7061 282.895 78.3022 283.017 77.9498 283.235C77.5752 283.47 77.2528 283.779 77.0023 284.143C76.7202 284.547 76.5061 284.995 76.3685 285.469C76.2168 285.992 76.1436 286.536 76.1514 287.081V382.036C76.1459 382.59 76.2201 383.141 76.3717 383.673C76.5119 384.168 76.7256 384.639 77.0055 385.071C77.2576 385.464 77.5798 385.808 77.9561 386.085C78.3004 386.34 78.7023 386.507 79.1263 386.57L266.753 408.334C267.341 408.394 267.934 408.317 268.487 408.109C269.021 407.903 269.503 407.581 269.898 407.166C270.311 406.73 270.631 406.215 270.84 405.652C271.07 405.033 271.182 404.376 271.171 403.716V287.45C271.18 286.778 271.068 286.109 270.84 285.477C270.628 284.884 270.308 284.335 269.898 283.857C269.506 283.399 269.026 283.024 268.487 282.755C267.948 282.486 267.355 282.342 266.753 282.333L79.1207 282.883Z" fill="#F2F2F2"/>
<path d="M177.869 398.213L252.911 406.932C253.167 406.962 253.425 406.948 253.675 406.89C253.918 406.833 254.149 406.734 254.359 406.598C254.573 406.458 254.763 406.284 254.921 406.082C255.089 405.866 255.223 405.626 255.317 405.369C255.419 405.1 255.482 404.818 255.505 404.532C255.529 404.241 255.516 403.948 255.466 403.66C255.417 403.369 255.331 403.085 255.212 402.815C255.092 402.542 254.937 402.286 254.752 402.053L205.284 340.063C205.07 339.791 204.804 339.565 204.5 339.399C204.226 339.249 203.922 339.162 203.61 339.144C203.306 339.127 203.002 339.181 202.722 339.302C202.423 339.434 202.156 339.632 201.943 339.88L190.434 353.088C190 353.597 189.455 354 188.841 354.266C188.271 354.508 187.652 354.612 187.035 354.568C186.401 354.52 185.786 354.331 185.235 354.014C184.622 353.66 184.086 353.187 183.658 352.623L149.737 308.741C149.548 308.493 149.31 308.287 149.037 308.137C148.794 308.004 148.522 307.93 148.245 307.922C147.97 307.916 147.699 307.977 147.453 308.099C147.18 308.234 146.941 308.429 146.753 308.668L87.1626 383.058C87.028 383.228 86.9185 383.417 86.8378 383.618C86.7518 383.832 86.6917 384.055 86.6588 384.283C86.6237 384.523 86.6147 384.765 86.6318 385.006C86.649 385.256 86.6931 385.502 86.7633 385.742C86.8311 385.975 86.9255 386.199 87.0446 386.41C87.1533 386.604 87.2864 386.783 87.4407 386.943C87.5822 387.09 87.7455 387.215 87.9247 387.312C88.093 387.403 88.2768 387.461 88.4666 387.485L177.959 397.845L177.869 398.213Z" fill="white"/>
<path d="M101.526 296.089C102.531 296.107 103.513 296.385 104.378 296.894C105.298 297.44 106.096 298.168 106.723 299.033C107.423 299.99 107.958 301.057 108.308 302.189C108.698 303.435 108.895 304.733 108.892 306.038C108.896 307.335 108.699 308.624 108.308 309.861C107.961 310.972 107.425 312.015 106.723 312.944C106.095 313.78 105.296 314.473 104.378 314.974C103.504 315.447 102.52 315.679 101.526 315.649C100.523 315.609 99.5458 315.312 98.6895 314.787C97.7846 314.228 97.0012 313.494 96.3857 312.627C95.7032 311.674 95.1809 310.615 94.8392 309.494C94.4612 308.266 94.2705 306.988 94.2736 305.703C94.2691 304.426 94.4599 303.157 94.8392 301.938C95.1783 300.837 95.7011 299.802 96.3857 298.876C97.0011 298.037 97.786 297.337 98.6895 296.821C99.5547 296.333 100.533 296.081 101.526 296.089Z" fill="white"/>
<path d="M132.045 124.71C131.339 124.842 130.672 125.132 130.094 125.559C129.474 126.018 128.938 126.581 128.51 127.223C128.045 127.913 127.685 128.668 127.442 129.463C127.182 130.3 127.048 131.17 127.046 132.045V491.276C127.053 493.016 127.56 494.719 128.507 496.18C128.935 496.847 129.471 497.439 130.091 497.934C130.664 498.392 131.33 498.721 132.043 498.896L398.197 560.327C399.263 560.584 400.371 560.614 401.449 560.416C402.42 560.234 403.334 559.827 404.119 559.227C404.894 558.628 405.514 557.852 405.927 556.963C406.376 555.982 406.604 554.913 406.593 553.834V85.4276C406.601 84.3357 406.374 83.2548 405.927 82.2587C405.511 81.343 404.893 80.5337 404.119 79.8915C403.341 79.2506 402.429 78.7922 401.45 78.5503C400.385 78.2911 399.277 78.2582 398.198 78.4536L132.045 124.71Z" fill="#E6E6E6"/>
<path d="M138.191 133.823C137.47 133.964 136.791 134.266 136.204 134.706C135.575 135.176 135.032 135.752 134.6 136.407C134.133 137.109 133.774 137.877 133.534 138.685C133.279 139.534 133.154 140.417 133.163 141.304V485.26C133.151 487.024 133.65 488.755 134.6 490.243C135.033 490.925 135.574 491.533 136.204 492.04C136.786 492.513 137.464 492.855 138.191 493.042L387.248 548.582C388.306 548.81 389.399 548.81 390.456 548.582C391.415 548.375 392.31 547.943 393.067 547.321C393.825 546.699 394.424 545.905 394.813 545.005C395.242 544.011 395.449 542.935 395.423 541.853V100.48C395.447 99.3859 395.239 98.2993 394.813 97.2912C394.422 96.3654 393.827 95.5397 393.072 94.8751C392.318 94.2106 391.424 93.7242 390.456 93.4521C389.413 93.1622 388.319 93.0974 387.248 93.2619L138.191 133.823Z" fill="white"/>
<path d="M169.988 180.667C169.653 180.707 169.331 180.823 169.047 181.007C168.749 181.201 168.489 181.447 168.28 181.735C168.055 182.042 167.88 182.383 167.763 182.745C167.637 183.129 167.573 183.53 167.573 183.934V197.704C167.571 198.096 167.635 198.485 167.763 198.855C167.877 199.186 168.052 199.493 168.279 199.76C168.489 200.007 168.751 200.204 169.046 200.336C169.342 200.466 169.666 200.519 169.987 200.49L337.743 185.69C338.199 185.647 338.641 185.513 339.044 185.294C339.447 185.076 339.807 184.787 340.108 184.442C340.415 184.09 340.658 183.688 340.827 183.253C341.001 182.808 341.092 182.334 341.094 181.856V165.593C341.096 165.131 341.006 164.673 340.83 164.246C340.665 163.851 340.42 163.494 340.11 163.198C339.806 162.909 339.443 162.69 339.046 162.555C338.627 162.413 338.182 162.365 337.743 162.415L169.988 180.667Z" fill="white"/>
<path d="M169.081 226.415C168.997 226.42 168.916 226.445 168.844 226.488C168.769 226.533 168.704 226.592 168.652 226.661C168.596 226.735 168.552 226.819 168.523 226.907C168.491 227.002 168.475 227.102 168.475 227.202V232.583C168.475 232.681 168.491 232.779 168.523 232.872C168.551 232.956 168.595 233.035 168.652 233.103C168.704 233.167 168.77 233.218 168.844 233.254C168.918 233.289 168.999 233.305 169.081 233.301L339.836 224.045C339.95 224.039 340.061 224.009 340.163 223.958C340.263 223.907 340.353 223.838 340.429 223.754C340.587 223.578 340.674 223.35 340.674 223.114V216.771C340.675 216.654 340.653 216.538 340.609 216.43C340.567 216.329 340.506 216.237 340.429 216.16C340.352 216.083 340.259 216.023 340.157 215.984C340.054 215.946 339.945 215.929 339.836 215.937L169.081 226.415Z" fill="#CCCCCC"/>
<path d="M169.081 243.916C168.998 243.919 168.916 243.943 168.844 243.985C168.769 244.029 168.704 244.086 168.652 244.155C168.595 244.228 168.552 244.311 168.523 244.399C168.491 244.494 168.475 244.593 168.475 244.693V250.074C168.475 250.173 168.491 250.271 168.523 250.364C168.551 250.451 168.595 250.531 168.652 250.602C168.704 250.666 168.77 250.719 168.844 250.756C168.917 250.792 168.999 250.81 169.081 250.806L339.836 244.654C339.949 244.65 340.06 244.624 340.163 244.575C340.263 244.526 340.353 244.458 340.429 244.375C340.587 244.202 340.674 243.976 340.674 243.741V237.394C340.675 237.277 340.652 237.161 340.609 237.053C340.567 236.951 340.506 236.858 340.429 236.779C340.353 236.702 340.262 236.642 340.163 236.601C340.059 236.559 339.948 236.54 339.836 236.546L169.081 243.916Z" fill="#CCCCCC"/>
<path d="M169.081 261.418C168.998 261.42 168.916 261.442 168.844 261.483C168.77 261.525 168.706 261.581 168.654 261.648C168.598 261.721 168.554 261.802 168.525 261.89C168.493 261.984 168.477 262.083 168.478 262.183V267.564C168.477 267.663 168.493 267.761 168.525 267.855C168.554 267.941 168.597 268.022 168.654 268.093C168.706 268.158 168.772 268.212 168.846 268.251C168.919 268.289 169.001 268.308 169.084 268.307L339.836 265.263C339.949 265.26 340.061 265.233 340.163 265.184C340.263 265.137 340.353 265.071 340.429 264.99C340.506 264.907 340.567 264.81 340.609 264.705C340.652 264.595 340.674 264.478 340.674 264.36V258.018C340.675 257.901 340.652 257.784 340.609 257.675C340.567 257.572 340.506 257.478 340.429 257.399C340.354 257.319 340.263 257.255 340.163 257.212C340.059 257.169 339.948 257.149 339.836 257.153L169.081 261.418Z" fill="#CCCCCC"/>
<path d="M168.779 296.373C168.697 296.372 168.615 296.391 168.542 296.429C168.468 296.468 168.402 296.522 168.35 296.588C168.294 296.659 168.251 296.739 168.223 296.825C168.192 296.919 168.176 297.017 168.176 297.116V302.495C168.175 302.595 168.192 302.694 168.223 302.788C168.252 302.874 168.296 302.955 168.352 303.026C168.405 303.093 168.47 303.149 168.544 303.191C168.617 303.231 168.699 303.253 168.782 303.254L339.42 306.417C339.532 306.419 339.643 306.397 339.746 306.353C339.846 306.31 339.936 306.247 340.012 306.169C340.089 306.088 340.15 305.994 340.192 305.891C340.236 305.782 340.258 305.665 340.258 305.548V299.208C340.258 299.089 340.235 298.972 340.192 298.862C340.15 298.757 340.089 298.661 340.012 298.579C339.937 298.498 339.846 298.432 339.746 298.386C339.644 298.339 339.533 298.314 339.42 298.312L168.779 296.373Z" fill="#CCCCCC"/>
<path d="M168.779 313.869C168.697 313.867 168.615 313.885 168.542 313.922C168.467 313.96 168.402 314.014 168.35 314.08C168.293 314.151 168.249 314.231 168.221 314.318C168.191 314.409 168.175 314.505 168.176 314.601V319.98C168.176 320.08 168.192 320.18 168.223 320.274C168.252 320.362 168.296 320.444 168.352 320.518C168.405 320.586 168.47 320.643 168.544 320.686C168.617 320.727 168.698 320.751 168.782 320.754L339.42 327.021C339.532 327.025 339.643 327.006 339.746 326.963C339.846 326.922 339.936 326.861 340.012 326.783C340.089 326.704 340.15 326.611 340.192 326.509C340.236 326.4 340.258 326.284 340.258 326.166V319.824C340.258 319.706 340.235 319.588 340.192 319.478C340.15 319.372 340.089 319.275 340.012 319.191C339.937 319.109 339.846 319.042 339.746 318.994C339.644 318.945 339.533 318.918 339.42 318.915L168.779 313.869Z" fill="#CCCCCC"/>
<path d="M168.779 331.364C168.698 331.361 168.617 331.378 168.544 331.415C168.47 331.45 168.405 331.501 168.352 331.564C168.296 331.633 168.252 331.712 168.223 331.797C168.191 331.89 168.175 331.987 168.176 332.086V337.465C168.176 337.565 168.192 337.665 168.223 337.76C168.252 337.848 168.296 337.931 168.352 338.005C168.405 338.074 168.47 338.132 168.544 338.176C168.616 338.219 168.698 338.244 168.782 338.248L339.42 347.62C339.529 347.627 339.638 347.61 339.74 347.571C339.842 347.532 339.935 347.471 340.012 347.394C340.089 347.316 340.15 347.224 340.192 347.122C340.236 347.014 340.258 346.898 340.258 346.781V340.44C340.257 340.205 340.169 339.98 340.012 339.806C339.937 339.723 339.846 339.654 339.746 339.604C339.644 339.553 339.533 339.524 339.42 339.518L168.779 331.364Z" fill="#CCCCCC"/>
<path d="M168.779 348.947C168.698 348.941 168.616 348.956 168.542 348.99C168.469 349.026 168.404 349.076 168.352 349.139C168.296 349.207 168.252 349.285 168.223 349.369C168.191 349.462 168.175 349.56 168.176 349.658V355.037C168.176 355.138 168.192 355.238 168.223 355.333C168.252 355.422 168.296 355.506 168.352 355.581C168.405 355.651 168.47 355.71 168.544 355.756C168.616 355.801 168.697 355.828 168.782 355.835L339.417 368.325C339.528 368.333 339.639 368.317 339.743 368.279C339.842 368.241 339.933 368.183 340.009 368.108C340.086 368.032 340.147 367.941 340.189 367.841C340.233 367.733 340.255 367.617 340.254 367.501V361.158C340.254 361.039 340.232 360.921 340.189 360.81C340.147 360.702 340.086 360.603 340.009 360.516C339.934 360.431 339.843 360.361 339.743 360.309C339.641 360.257 339.531 360.226 339.417 360.218L168.779 348.947Z" fill="#CCCCCC"/>
<path d="M168.779 366.442C168.698 366.435 168.616 366.448 168.542 366.482C168.468 366.516 168.404 366.567 168.352 366.629C168.296 366.696 168.252 366.772 168.223 366.854C168.191 366.947 168.175 367.044 168.176 367.142V372.521C168.176 372.622 168.192 372.722 168.223 372.817C168.252 372.907 168.296 372.992 168.352 373.068C168.405 373.138 168.47 373.199 168.544 373.246C168.616 373.291 168.697 373.318 168.782 373.325L339.417 388.924C339.527 388.935 339.638 388.921 339.743 388.884C339.842 388.849 339.933 388.792 340.009 388.719C340.086 388.644 340.147 388.554 340.189 388.454C340.233 388.347 340.255 388.232 340.254 388.116V381.773C340.254 381.654 340.232 381.535 340.189 381.423C340.146 381.315 340.086 381.214 340.009 381.127C339.934 381.041 339.843 380.969 339.743 380.915C339.642 380.86 339.531 380.827 339.417 380.817L168.779 366.442Z" fill="#CCCCCC"/>
<path d="M168.779 383.938C168.698 383.929 168.617 383.941 168.542 383.973C168.469 384.005 168.404 384.053 168.352 384.114C168.295 384.18 168.252 384.257 168.223 384.339C168.191 384.432 168.175 384.529 168.176 384.627V390.006C168.176 390.107 168.192 390.207 168.223 390.303C168.253 390.394 168.296 390.479 168.352 390.556C168.405 390.628 168.47 390.69 168.544 390.738C168.616 390.785 168.697 390.814 168.782 390.823L339.417 409.524C339.527 409.537 339.638 409.525 339.743 409.49C339.842 409.457 339.933 409.403 340.009 409.332C340.086 409.258 340.148 409.169 340.189 409.07C340.233 408.963 340.255 408.849 340.254 408.733V402.389C340.254 402.269 340.232 402.15 340.189 402.038C340.146 401.928 340.085 401.827 340.009 401.738C339.934 401.651 339.844 401.577 339.743 401.521C339.642 401.465 339.531 401.43 339.417 401.418L168.779 383.938Z" fill="#CCCCCC"/>
<path d="M168.779 401.521C168.699 401.511 168.617 401.522 168.542 401.552C168.469 401.582 168.405 401.628 168.352 401.686C168.295 401.752 168.251 401.829 168.223 401.913C168.191 402.005 168.175 402.101 168.176 402.199V407.578C168.176 407.679 168.192 407.78 168.223 407.876C168.253 407.967 168.296 408.053 168.352 408.131C168.405 408.204 168.47 408.266 168.544 408.316C168.615 408.364 168.697 408.394 168.782 408.406L339.417 430.228C339.526 430.243 339.637 430.234 339.743 430.201C339.842 430.168 339.933 430.114 340.009 430.042C340.086 429.97 340.148 429.882 340.189 429.784C340.233 429.677 340.255 429.563 340.254 429.448V423.108C340.254 422.987 340.232 422.868 340.189 422.755C340.146 422.645 340.085 422.543 340.009 422.453C339.934 422.364 339.844 422.289 339.743 422.231C339.642 422.173 339.532 422.136 339.417 422.121L168.779 401.521Z" fill="#CCCCCC"/>
<path d="M168.779 419.017C168.699 419.005 168.617 419.014 168.542 419.044C168.469 419.073 168.404 419.119 168.352 419.178C168.295 419.242 168.251 419.317 168.223 419.398C168.191 419.489 168.175 419.586 168.176 419.683V425.062C168.176 425.164 168.192 425.264 168.223 425.361C168.253 425.453 168.296 425.54 168.352 425.618C168.405 425.692 168.47 425.756 168.544 425.807C168.615 425.856 168.696 425.888 168.782 425.9L339.417 450.829C339.526 450.845 339.637 450.838 339.743 450.806C339.842 450.777 339.932 450.725 340.009 450.656C340.086 450.585 340.148 450.498 340.189 450.401C340.233 450.295 340.255 450.181 340.254 450.066V443.723C340.254 443.602 340.232 443.483 340.189 443.37C340.146 443.259 340.085 443.155 340.009 443.064C339.934 442.974 339.844 442.897 339.743 442.837C339.643 442.778 339.532 442.739 339.417 442.723L168.779 419.017Z" fill="#CCCCCC"/>
<path d="M168.779 436.512C168.7 436.499 168.618 436.506 168.542 436.534C168.469 436.562 168.404 436.607 168.352 436.665C168.295 436.728 168.251 436.803 168.223 436.883C168.191 436.974 168.175 437.071 168.176 437.167V442.547C168.176 442.649 168.192 442.75 168.223 442.847C168.253 442.94 168.296 443.027 168.352 443.107C168.405 443.182 168.469 443.247 168.544 443.299C168.615 443.349 168.696 443.382 168.782 443.397L339.417 471.429C339.525 471.448 339.637 471.442 339.743 471.413C339.841 471.385 339.932 471.335 340.009 471.267C340.086 471.198 340.148 471.111 340.189 471.015C340.233 470.91 340.255 470.796 340.254 470.682V464.338C340.254 464.217 340.232 464.097 340.189 463.984C340.146 463.871 340.085 463.767 340.009 463.674C339.934 463.582 339.844 463.504 339.743 463.442C339.643 463.381 339.532 463.34 339.417 463.321L168.779 436.512Z" fill="#CCCCCC"/>
<path d="M390.832 462.479C400.199 463.936 409.214 467.123 417.416 471.877C434.658 481.867 448.13 497.257 455.751 515.668C459.562 524.838 461.555 534.661 461.619 544.591C461.721 553.757 459.713 562.824 455.751 571.089C452.128 578.535 446.727 584.973 440.024 589.835C433.318 594.641 425.572 597.795 417.416 599.041C408.541 600.368 399.488 599.829 390.834 597.456C381.724 595.009 373.115 590.983 365.396 585.562C357.803 580.255 351.066 573.82 345.419 566.477C339.877 559.317 335.464 551.35 332.334 542.853C329.257 534.546 327.659 525.764 327.612 516.906C327.538 508.67 329.145 500.505 332.334 492.911C335.294 485.887 339.807 479.625 345.532 474.594C351.258 469.563 358.049 465.894 365.396 463.863C373.679 461.598 382.351 461.126 390.832 462.479Z" fill="white"/>
<path d="M384.503 556.996L365.053 527.103L376.285 520.423L385.593 534.54L418.162 506.527L429.461 519.159L384.503 556.996Z" fill="white"/>
<path d="M242.49 522.163L238.975 473.446L245.289 427.794L227.357 426.583L223.817 477.012L233.821 524.435C232.969 525.613 232.502 527.025 232.483 528.479C232.464 529.932 232.895 531.356 233.716 532.556C234.537 533.755 235.709 534.672 237.071 535.18C238.433 535.688 239.919 535.763 241.325 535.394C242.731 535.026 243.989 534.232 244.927 533.121C245.865 532.01 246.437 530.637 246.564 529.189C246.692 527.741 246.369 526.289 245.64 525.031C244.911 523.774 243.811 522.772 242.49 522.163Z" fill="#9F616A"/>
<path d="M225.069 433.144L229.28 414.921C230.086 411.431 232.196 408.382 235.178 406.398C238.16 404.414 241.788 403.646 245.318 404.25C248.849 404.855 252.014 406.787 254.166 409.65C256.318 412.513 257.293 416.091 256.893 419.65L254.574 440.241L225.069 433.144Z" fill="#CBCBCB"/>
<path d="M258.266 680.885L266.72 680.884L270.741 648.277L258.265 648.278L258.266 680.885Z" fill="#9F616A"/>
<path d="M256.11 678.125L272.758 678.124C275.572 678.124 278.271 679.242 280.261 681.232C282.25 683.221 283.368 685.92 283.368 688.734V689.078L256.11 689.079L256.11 678.125Z" fill="#2F2E41"/>
<path d="M300.382 680.608L308.509 678.28L303.397 645.826L291.402 649.262L300.382 680.608Z" fill="#9F616A"/>
<path d="M297.549 678.548L313.554 673.964C316.259 673.189 319.161 673.52 321.622 674.885C324.082 676.25 325.9 678.537 326.675 681.242L326.77 681.573L300.566 689.079L297.549 678.548Z" fill="#2F2E41"/>
<path d="M253.697 669.05L257.629 570.275L247.417 525.575C233.674 502.533 248.5 465.779 248.651 465.41L248.707 465.276L248.851 465.256L284.801 460.385L285.306 461.544C299.367 493.692 303.269 529.369 296.49 563.797L292.748 582.934L311.241 657.598L293.739 666.349L280.311 631.527L271.234 667.154L253.697 669.05Z" fill="#2F2E41"/>
<path d="M243.916 474.571L232.188 440.207C224.897 427.367 229.522 415.968 234.686 408.666C240.262 400.782 240.597 396.36 240.671 396.311L240.73 396.272L256.139 395.805L270.4 410.296C271.297 409.945 278.874 428.619 278.232 429.557L288.192 461.754L243.916 474.571Z" fill="#CBCBCB"/>
<path d="M338.88 480.514L300.246 450.63L270.452 415.468L257.586 428.018L292.789 464.3L334.789 488.488C335.097 489.909 335.838 491.199 336.908 492.183C337.978 493.167 339.326 493.796 340.768 493.984C342.209 494.173 343.674 493.911 344.961 493.236C346.248 492.56 347.295 491.503 347.959 490.21C348.622 488.917 348.87 487.45 348.669 486.01C348.467 484.571 347.825 483.228 346.832 482.167C345.838 481.106 344.541 480.378 343.118 480.082C341.695 479.786 340.215 479.937 338.88 480.514Z" fill="#9F616A"/>
<path d="M253.93 440.732L243.165 425.437C241.104 422.508 240.24 418.902 240.752 415.357C241.264 411.812 243.112 408.597 245.917 406.371C248.723 404.145 252.274 403.076 255.842 403.383C259.411 403.69 262.727 405.35 265.111 408.024L278.902 423.489L253.93 440.732Z" fill="#CBCBCB"/>
<path d="M246.622 391.591C256.728 391.591 264.921 383.399 264.921 373.293C264.921 363.188 256.728 354.995 246.622 354.995C236.517 354.995 228.324 363.188 228.324 373.293C228.324 383.399 236.517 391.591 246.622 391.591Z" fill="#9F616A"/>
<path d="M265.228 364.01H236.173V351.345C242.55 348.812 248.791 346.657 252.563 351.345C255.922 351.345 259.143 352.68 261.518 355.055C263.894 357.43 265.228 360.652 265.228 364.01Z" fill="#2F2E41"/>
<path d="M240.177 348.309C213.556 347.582 218.597 391.438 218.597 391.438C218.597 391.438 223.62 392.102 225.912 392.493L228.679 390.934L231.657 392.887C233.025 392.894 234.461 392.868 235.951 392.84L237.316 390.029L240.36 392.789C245.902 392.798 260.942 392.95 260.942 392.95C260.942 392.95 270.005 349.123 240.177 348.309Z" fill="#2F2E41"/>
<path d="M132.918 423.45C133.023 422.593 132.939 421.723 132.671 420.901C132.404 420.079 131.959 419.326 131.369 418.695C130.779 418.064 130.058 417.57 129.256 417.248C128.454 416.925 127.592 416.783 126.729 416.83L120.88 404.656L112.615 406.405L121.116 423.482C121.291 424.926 121.99 426.256 123.08 427.219C124.17 428.182 125.576 428.712 127.031 428.708C128.486 428.704 129.888 428.167 130.973 427.198C132.058 426.229 132.75 424.896 132.918 423.45Z" fill="#FFB7B7"/>
<path d="M5.947 564.801L12.826 568.322L29.679 543.463L19.526 538.268L5.947 564.801Z" fill="#FFB7B7"/>
<path d="M5.34209 561.657L18.8896 568.59C21.1792 569.762 22.91 571.796 23.7004 574.244C24.4908 576.691 24.2766 579.353 23.105 581.642L22.9614 581.923L0.780228 570.572L5.34209 561.657Z" fill="#2F2E41"/>
<path d="M85.398 574.432H93.125L96.801 544.625L85.396 544.626L85.398 574.432Z" fill="#FFB7B7"/>
<path d="M83.4265 571.909L98.6449 571.909C101.217 571.909 103.684 572.931 105.503 574.749C107.322 576.568 108.344 579.035 108.344 581.607V581.922L83.427 581.923L83.4265 571.909Z" fill="#2F2E41"/>
<path d="M49.2511 331.309C49.2511 331.309 44.0763 327.344 44.0763 337.028L43.2593 369.03L52.3832 399.261L57.6941 389.456L55.5153 368.213L49.2511 331.309Z" fill="white"/>
<path d="M104.606 418.839C104.606 418.839 110.607 448.062 103.006 472.045L98.8053 564.255L83.4036 563.055L78.003 494.647L72.8024 460.644L62.0013 491.647L26.3974 557.254L9.99562 544.453C9.99562 544.453 28.1714 494.859 41.5991 484.446L48.3335 407.745L104.606 418.839Z" fill="#2F2E41"/>
<path d="M86.3495 292.237C96.0483 292.237 103.911 284.375 103.911 274.676C103.911 264.977 96.0483 257.115 86.3495 257.115C76.6507 257.115 68.7883 264.977 68.7883 274.676C68.7883 284.375 76.6507 292.237 86.3495 292.237Z" fill="#FFB8B8"/>
<path d="M85.1067 278.401C87.2118 278.675 88.7998 276.521 89.5364 274.53C90.2729 272.539 90.834 270.221 92.6643 269.145C95.1649 267.676 98.3642 269.443 101.224 268.958C104.453 268.411 106.553 264.989 106.717 261.717C106.882 258.446 105.58 255.3 104.303 252.284L103.857 256.032C103.916 254.762 103.649 253.497 103.08 252.36C102.512 251.222 101.661 250.25 100.609 249.535L101.183 255.035C101.061 254.276 100.79 253.549 100.386 252.895C99.982 252.241 99.4528 251.674 98.8288 251.225C98.2048 250.776 97.4984 250.455 96.75 250.28C96.0016 250.105 95.226 250.079 94.4677 250.205L94.5582 253.482C90.8431 252.909 87.0784 252.725 83.3251 252.932C79.5465 253.151 75.9304 254.544 72.982 256.917C68.7409 260.602 67.192 266.671 67.712 272.265C68.232 277.859 70.5414 283.115 72.9483 288.192C73.5539 289.469 74.3914 290.911 75.7957 291.073C76.4323 291.082 77.0538 290.879 77.5623 290.496C78.0708 290.113 78.4373 289.571 78.6041 288.957C78.9063 287.717 78.8946 286.422 78.57 285.188C78.073 283.331 77.9143 281.399 78.1015 279.485C78.4351 277.596 79.7945 275.729 81.6992 275.497C83.6039 275.265 85.553 277.443 84.6372 279.129L85.1067 278.401Z" fill="#2F2E41"/>
<path d="M69.5416 298.626L73.2184 293.521C73.2184 293.521 77.3281 294.918 88.3342 300.396L89.1117 305.179L108.216 422.684L73.4908 421.186L64.0344 420.985L57.1238 420.838L47.8893 420.641L47.7532 386.869L50.7491 360.995L46.119 336.619C46.119 336.619 40.2928 314.236 62.7327 302.166L69.5416 298.626Z" fill="white"/>
<path d="M117.668 417.199L118.929 421.612L127.753 415.864L124.423 412.053L117.668 417.199Z" fill="#CBCBCB"/>
<path d="M76.1102 312.828C76.1102 312.828 89.7891 295.365 98.0568 314.828L100.663 335.225C100.663 335.225 110.679 360.579 110.98 370.837C110.98 370.837 117.771 384.224 117.708 391.256L127.753 413.997L117.451 420.393L88.9369 376.674L76.1102 312.828Z" fill="white"/>
</g>
<defs>
<clipPath id="clip0_28_135">
<rect width="461.622" height="689.079" fill="white"/>
</clipPath>
</defs>
</svg>
